<?xml version="1.0" standalone="no"?>
<!DOCTYPE svg PUBLIC "-//W3C//DTD SVG 20010904//EN"
 "http://www.w3.org/TR/2001/REC-SVG-20010904/DTD/svg10.dtd">
<svg version="1.0" xmlns="http://www.w3.org/2000/svg"
 width="947.000000pt" height="947.000000pt" viewBox="0 0 947.000000 947.000000"
 preserveAspectRatio="xMidYMid meet">
<metadata>
Created by potrace 1.11, written by Peter Selinger 2001-2013
</metadata>
<g transform="translate(0.000000,947.000000) scale(0.100000,-0.100000)"
fill="#000000" stroke="none">
<path d="M4537 9464 c-1 -1 -54 -5 -117 -8 -63 -4 -133 -9 -155 -11 -22 -2
-62 -7 -90 -9 -51 -5 -260 -40 -305 -51 -14 -3 -35 -8 -47 -11 -12 -2 -35 -9
-50 -16 -16 -6 -32 -10 -37 -9 -5 1 -16 -1 -25 -5 -9 -4 -21 -8 -27 -9 -34 -8
-54 -17 -49 -25 3 -4 -3 -6 -12 -4 -17 5 -262 -90 -273 -104 -3 -4 -14 -8 -25
-10 -11 -2 -25 -10 -31 -18 -6 -7 -14 -11 -17 -8 -7 7 -287 -137 -412 -212
-53 -33 -111 -67 -128 -78 -18 -10 -33 -22 -35 -27 -2 -5 -8 -9 -14 -9 -12 0
-89 -60 -263 -204 -121 -100 -266 -239 -343 -331 -23 -27 -50 -59 -60 -70 -66
-71 -231 -313 -287 -420 -24 -47 -36 -58 -95 -89 -102 -55 -305 -195 -405
-281 -115 -98 -232 -211 -320 -309 -38 -43 -87 -97 -107 -120 -21 -22 -38 -45
-38 -50 0 -5 -8 -16 -18 -25 -10 -9 -39 -45 -65 -81 -26 -36 -51 -69 -55 -75
-20 -25 -122 -185 -122 -190 0 -4 -7 -13 -16 -22 -8 -9 -13 -22 -10 -30 3 -8
1 -11 -4 -8 -6 3 -13 -2 -17 -12 -4 -10 -18 -36 -31 -58 -14 -22 -25 -46 -25
-52 0 -7 -5 -13 -10 -13 -5 0 -6 -7 -3 -16 3 -8 2 -13 -2 -10 -5 3 -28 -36
-51 -87 -24 -51 -46 -99 -51 -108 -39 -75 -133 -336 -126 -348 4 -5 2 -11 -4
-13 -10 -3 -74 -243 -86 -322 -3 -22 -7 -48 -9 -56 -2 -8 -6 -40 -10 -70 -4
-30 -9 -66 -11 -80 -29 -178 -50 -610 -30 -610 7 0 7 -3 1 -8 -10 -7 -15 -162
-5 -162 3 0 5 -34 5 -76 0 -42 5 -126 12 -188 7 -61 16 -136 19 -166 4 -30 9
-57 13 -60 3 -3 6 -16 7 -30 1 -31 10 -83 23 -135 6 -22 14 -56 17 -75 3 -19
9 -37 13 -40 3 -3 7 -14 9 -25 7 -47 65 -194 75 -188 6 3 7 1 3 -6 -10 -16 24
-102 37 -94 6 3 7 1 3 -5 -4 -6 5 -36 18 -67 14 -30 26 -58 27 -63 7 -30 239
-463 265 -493 8 -8 14 -21 14 -27 0 -7 5 -12 10 -12 6 0 10 -5 10 -10 0 -6 15
-31 32 -56 51 -70 141 -188 155 -202 7 -7 28 -32 48 -57 25 -30 42 -42 53 -38
14 4 14 3 3 -5 -12 -8 -9 -16 15 -44 48 -55 297 -298 305 -298 5 0 16 -8 26
-18 10 -10 47 -41 83 -68 36 -27 67 -52 70 -55 5 -5 98 -66 200 -131 30 -19
62 -37 71 -41 9 -3 33 -35 53 -72 36 -64 161 -256 190 -292 8 -10 51 -64 96
-121 84 -106 261 -289 339 -352 46 -38 76 -62 159 -132 77 -66 193 -148 317
-224 145 -89 479 -258 630 -318 66 -27 129 -52 140 -57 116 -50 418 -118 605
-135 30 -2 61 -7 68 -9 66 -23 737 -23 892 0 14 2 56 6 93 10 37 3 76 8 85 10
9 1 39 6 65 9 26 4 71 11 100 17 29 6 66 13 82 15 185 31 486 136 740 258 450
217 874 547 1190 927 50 61 185 252 224 319 48 80 79 120 94 120 5 0 73 42
151 94 241 161 452 343 602 521 32 39 79 95 104 124 234 277 482 722 640 1151
56 152 109 393 125 566 3 33 7 70 10 82 22 118 23 783 0 901 -2 9 -6 45 -9 81
-4 36 -9 76 -11 90 -2 14 -7 45 -10 70 -9 66 -43 234 -65 321 -25 97 -99 321
-111 334 -5 5 -9 15 -9 23 0 17 -11 42 -107 241 -136 283 -298 528 -523 796
-74 89 -321 324 -425 406 -127 101 -285 208 -373 254 -42 22 -60 40 -85 82
-18 30 -40 69 -50 86 -43 71 -185 262 -234 314 -13 13 -23 26 -23 29 0 2 -15
20 -32 38 -18 18 -65 67 -104 107 -88 93 -214 207 -324 293 -47 36 -96 75
-110 86 -14 11 -31 20 -37 20 -7 0 -13 4 -13 8 0 12 -181 130 -305 199 -100
55 -363 183 -377 183 -8 0 -18 4 -23 9 -6 4 -32 16 -60 26 -27 9 -59 21 -70
26 -68 29 -308 97 -402 114 -15 2 -53 9 -83 15 -30 6 -73 13 -95 15 -22 3 -51
7 -65 10 -68 12 -148 20 -335 31 -80 5 -434 11 -438 8z m-652 -193 c3 -5 2
-12 -3 -15 -5 -3 -9 1 -9 9 0 17 3 19 12 6z m2080 -80 c3 -5 2 -12 -3 -15 -5
-3 -9 1 -9 9 0 17 3 19 12 6z m882 -486 c0 -8 -4 -12 -9 -9 -5 3 -6 10 -3 15
9 13 12 11 12 -6z m-4320 -70 c0 -8 -4 -12 -9 -9 -5 3 -6 10 -3 15 9 13 12 11
12 -6z m-1202 -1194 c3 -5 2 -12 -3 -15 -5 -3 -9 1 -9 9 0 17 3 19 12 6z
m-1040 -1530 c3 -5 2 -12 -3 -15 -5 -3 -9 1 -9 9 0 17 3 19 12 6z m-158 -396
c0 -8 -4 -12 -9 -9 -5 3 -6 10 -3 15 9 13 12 11 12 -6z m1358 -3594 c3 -5 2
-12 -3 -15 -5 -3 -9 1 -9 9 0 17 3 19 12 6z"/>
</g>
</svg>
